<svg width="24" height="24" viewBox="0 0 24 24" fill="none" xmlns="http://www.w3.org/2000/svg">
<path fill-rule="evenodd" clip-rule="evenodd" d="M24 12C24 16.4148 21.6159 20.2728 18.0649 22.3568C16.2853 23.4012 14.2126 24 12 24C9.78741 24 7.71469 23.4012 5.93505 22.3568C2.38409 20.2728 0 16.4148 0 12C0 5.37258 5.37258 0 12 0C18.6275 0 24 5.37258 24 12ZM18.3353 18.3925C18.9937 17.7399 19.1838 16.726 18.6873 15.9429C17.7565 14.4746 16.1171 13.5 14.25 13.5H9.75C7.88292 13.5 6.24346 14.4746 5.31269 15.9429C4.81625 16.726 5.00621 17.7399 5.66476 18.3925C7.29112 20.0044 9.52929 21 12 21C14.4707 21 16.709 20.0044 18.3353 18.3925ZM12 10.5C13.6569 10.5 15 9.15685 15 7.5C15 5.84314 13.6569 4.5 12 4.5C10.3431 4.5 9 5.84314 9 7.5C9 9.15685 10.3431 10.5 12 10.5Z" fill="#1662D3"/>
</svg>
