<svg width="24" height="24" viewBox="0 0 24 24" fill="none" xmlns="http://www.w3.org/2000/svg">
<g clip-path="url(#clip0)">
<path fill-rule="evenodd" clip-rule="evenodd" d="M5.125 2.375C2.84683 2.375 1 4.22183 1 6.5V17.5C1 19.7782 2.84683 21.625 5.125 21.625H18.875C21.1532 21.625 23 19.7782 23 17.5V6.5C23 4.22183 21.1532 2.375 18.875 2.375H5.125ZM5.98395 5.4263C5.39097 4.95192 4.52569 5.04805 4.0513 5.64104C3.57692 6.23403 3.67305 7.09931 4.26605 7.5737L11.1411 13.0737C11.6432 13.4754 12.3568 13.4754 12.8589 13.0737L19.734 7.5737C20.327 7.09931 20.4231 6.23403 19.9487 5.64104C19.4744 5.04805 18.6091 4.95192 18.016 5.4263L12 10.2391L5.98395 5.4263Z" fill="#1662D3"/>
</g>
<defs>
<clipPath id="clip0">
<rect width="24" height="20" fill="white" transform="translate(0 2)"/>
</clipPath>
</defs>
</svg>
