<svg width="16" height="16" viewBox="0 0 16 16" fill="none" xmlns="http://www.w3.org/2000/svg">
<path d="M7 1C7 1.55228 6.55228 2 6 2H3C2.44772 2 2 2.44772 2 3V13C2 13.5523 2.44772 14 3 14H13C13.5523 14 14 13.5523 14 13V10C14 9.44771 14.4477 9 15 9C15.5523 9 16 9.44771 16 10V13C16 14.6569 14.6569 16 13 16H3C1.34315 16 0 14.6569 0 13V3C0 1.34315 1.34315 0 3 0H6C6.55228 0 7 0.447715 7 1Z" fill="white"/>
<path fill-rule="evenodd" clip-rule="evenodd" d="M9 1C9 0.447715 9.44772 0 10 0H15C15.5523 0 16 0.447715 16 1V6C16 6.55228 15.5523 7 15 7C14.4477 7 14 6.55228 14 6V2H10C9.44772 2 9 1.55228 9 1Z" fill="white"/>
<path fill-rule="evenodd" clip-rule="evenodd" d="M8.29289 7.70712C7.90237 7.31659 7.90237 6.68343 8.29289 6.2929L13.3841 1.20173C13.7746 0.811214 14.4077 0.811214 14.7983 1.20173C15.1888 1.59226 15.1888 2.22542 14.7983 2.61595L9.70711 7.70712C9.31658 8.09764 8.68342 8.09764 8.29289 7.70712Z" fill="white"/>
</svg>
