<svg width="20" height="20" viewBox="0 0 20 20" fill="none" xmlns="http://www.w3.org/2000/svg">
<path fill-rule="evenodd" clip-rule="evenodd" d="M16.25 8.125C16.25 3.63769 12.6124 0 8.125 0C3.63769 0 0 3.63769 0 8.125C0 12.6124 3.63769 16.25 8.125 16.25C9.82156 16.25 11.3967 15.73 12.6996 14.8407C12.827 14.7539 12.9988 14.7665 13.1077 14.8755L17.8661 19.6339C18.3542 20.122 19.1458 20.122 19.6339 19.6339C20.122 19.1458 20.122 18.3542 19.6339 17.8661L14.8755 13.1077C14.7665 12.9988 14.7539 12.827 14.8407 12.6996C15.73 11.3967 16.25 9.82156 16.25 8.125ZM13.75 8.125C13.75 5.0184 11.2316 2.5 8.125 2.5C5.0184 2.5 2.5 5.0184 2.5 8.125C2.5 11.2316 5.0184 13.75 8.125 13.75C11.2316 13.75 13.75 11.2316 13.75 8.125Z" fill="white" fill-opacity="0.95"/>
</svg>
